<svg version="1" xmlns="http://www.w3.org/2000/svg" width="400" height="400" viewBox="0 0 300.000000 300.000000"><path d="M141.5 58.4c-3.8 1.9-14.6 7-24 11.6-9.3 4.5-20.6 9.9-25 12-4.4 2.1-16.1 7.7-26 12.5-9.9 4.8-21.6 10.4-26 12.5-23.9 11.3-37.7 18.1-37.4 18.5.2.2 10.8 5.3 23.4 11.3 27.7 13.2 51.6 24.7 56.9 27.4 2.1 1.1 3.6 1.6 3.4 1.1-.2-.4-2.6-5.6-5.4-11.5l-4.9-10.7-18.5-8.9-18.5-9 18-8.7c9.9-4.8 28.1-13.6 40.5-19.5 34.5-16.5 50.4-24.2 51.1-24.6.3-.1 5.2 2 11 4.8 5.7 2.7 14.5 6.9 19.4 9.3 17.8 8.4 32.3 15.4 48 23 8.8 4.2 19.8 9.5 24.4 11.7l8.4 4-10.9 5.2c-29 14-26 12.1-29 18.4-1.5 3.1-4 8.3-5.6 11.5-1.6 3.3-2.6 5.7-2.1 5.4 2.7-1.7 37-17.7 37.8-17.7.3 0 .5 4.4.5 9.8 0 7.8-.4 10.6-2 13.7-1.1 2.2-2 5-2 6.3 0 3.5 2.8 8.8 5.6 10.7l2.5 1.6-2.6 2c-5.2 4.1-5.5 6-5.5 30.4V245h26.6l-.1-23.2c-.1-20.9-.3-23.6-1.9-26.1-1.1-1.5-2.7-3.2-3.8-3.8-1.8-1-1.7-1.3 1.6-5 2-2.1 3.6-4.5 3.7-5.2 0-.6.2-2.2.3-3.5.2-1.3-.7-4.4-1.8-7-1.9-4.1-2.1-6.5-2.1-18.7l.1-14 4-2c2.2-1.1 8.2-4 13.2-6.4 7.5-3.5 9-4.6 8.1-5.7-.6-.8-1.5-1.4-1.9-1.4-.4 0-9.7-4.3-20.6-9.6-11-5.3-23.9-11.6-28.9-13.9-4.9-2.4-15.3-7.3-23-11-7.7-3.7-17.6-8.4-22-10.5-4.4-2.1-16.9-8.1-27.9-13.4-10.9-5.3-20.4-9.6-21-9.5-.6 0-4.2 1.5-8.1 3.3z"/><path d="M134.9 108.4c-.2.2-3 .6-6.2 1C113.2 111 82 119.9 82 122.7c0 1.1 5.5 13 6.6 14.2.2.2 4.4-1.1 9.4-2.8 10.6-3.6 24-6.8 33.7-7.8 12.4-1.4 33.6-.8 44.3 1.2 9.2 1.7 18.6 4.1 25.7 6.6 4.5 1.6 8.4 2.9 8.7 2.9.6 0 5.1-8.5 6.6-12.5.8-2.2.5-2.6-2.3-3.9-8.2-3.8-26.9-9-36.7-10.2-2.4-.3-4.8-.8-5.3-1.1-1-.6-37.2-1.5-37.8-.9zM136.9 143.5c-.2.2-2.4.5-4.9.8-10.1 1.1-32.7 7.1-34.8 9.1-.5.6 4.2 11.8 6.2 14.4.5.7 1.6 1 2.5.6 6.3-2.5 19.2-5.7 27.6-6.9 19.3-2.5 39.3-.5 57.4 6 2.4.8 4.5 1.4 4.6 1.3.6-.7 5.7-11.1 6.5-13.2.8-2.3.4-2.5-8.8-5.4-5.3-1.7-12.2-3.5-15.2-4.1-3-.6-6.8-1.3-8.5-1.7-3.4-.7-32.1-1.5-32.6-.9zM133 179.7c-7.8 1.2-21 4.9-21 5.8 0 .3 1.6 3.8 3.6 8 2.9 6.1 4 7.5 5.3 6.9 8.8-3.7 29.1-5.9 40-4.2 7.9 1.2 9 1.5 14.6 3.2 2.7.8 5 1.4 5 1.3.1-.1 1.8-3.6 3.7-7.8l3.6-7.7-6.7-2c-3.6-1.1-7.9-2.3-9.6-2.6-1.6-.4-4.1-.9-5.5-1.2-5.5-1.2-25-1-33 .3z"/></svg>