<?xml version="1.0" encoding="UTF-8"?>
<svg width="25px" height="14px" viewBox="0 0 25 14" version="1.1" xmlns="http://www.w3.org/2000/svg" xmlns:xlink="http://www.w3.org/1999/xlink">
    <!-- Generator: Sketch 57.1 (83088) - https://sketch.com -->
    <title>Combined Shape</title>
    <desc>Created with Sketch.</desc>
    <g id="Settings" stroke="none" stroke-width="1" fill="none" fill-rule="evenodd">
        <g id="Districts-and-Shcools" transform="translate(-210.000000, -389.000000)" fill="#FFFFFF">
            <g id="Group-10" transform="translate(210.000000, 389.000000)">
                <path d="M12.5525599,0.150799478 L24.980563,6.56828713 L22.6663716,7.76308675 L22.6663716,9.47483986 C22.8720506,9.69243151 23.0001463,9.99471451 23.0001463,10.329734 C23.0001463,10.840488 22.7023654,11.2740426 22.2845043,11.4470084 C22.6643781,11.6042501 22.9450119,11.9767198 22.9934649,12.4268791 L23.0009025,12.56412 L23.0009025,13.9058964 L20.7712512,13.9058964 L20.7720074,12.56412 C20.7720074,12.053366 21.0697883,11.6199742 21.4876494,11.4470084 C21.0697883,11.2740426 20.7720074,10.840488 20.7720074,10.329734 C20.7720074,10.0425744 20.8661185,9.77946617 21.0225312,9.57312714 L21.1057821,9.47483986 L21.1057821,8.56879473 L17.8229333,10.2639248 L18.7466741,8.1893123 L21.8860012,6.56828713 L12.5525599,1.74820878 L3.21911852,6.56828713 L6.35859691,8.1893123 L7.28233765,10.2639248 L0.124708025,6.56828713 L12.5525599,0.150799478 Z M12.5525448,11.3754663 C13.5602375,11.3754663 14.5262268,11.5643771 15.4288445,11.901248 L15.7643133,12.0344302 L15.1354799,13.4464958 C14.3298534,13.1222256 13.4620694,12.9362303 12.5525448,12.9362303 C11.756843,12.9362303 10.9929832,13.078633 10.2747442,13.3314693 L9.9697608,13.4464958 L9.34092747,12.0344302 C10.3381682,11.6145566 11.4188904,11.3754663 12.5525448,11.3754663 Z M12.5525448,8.19072925 C14.0112274,8.19072925 15.4081496,8.47853396 16.6990455,9.00183082 L17.048446,9.15034748 L16.4203688,10.5607843 C15.2244059,10.0407468 13.919554,9.75133039 12.5525448,9.75133039 C11.3223725,9.75133039 10.1425478,9.9857577 9.04691734,10.4117505 L8.68487191,10.5607843 L8.05679475,9.15034748 C9.44346451,8.53324065 10.9614059,8.19072925 12.5525448,8.19072925 Z M12.5525296,5.00636676 C14.6013043,5.00636676 16.5537426,5.45865119 18.328934,6.27413124 L18.328934,6.27413124 L17.701613,7.68310228 C16.1166747,6.96501728 14.3770235,6.56713077 12.5525296,6.56713077 C10.728187,6.56713077 8.9885358,6.96501728 7.40359753,7.68310228 L7.40359753,7.68310228 L6.77627654,6.27413124 C8.5514679,5.45865119 10.5037549,5.00636676 12.5525296,5.00636676 Z" id="Combined-Shape"></path>
            </g>
        </g>
    </g>
</svg>